<?xml version='1.0' encoding='utf-8'?>
<svg xmlns="http://www.w3.org/2000/svg" xmlns:inkscape="http://www.inkscape.org/namespaces/inkscape" width="768" height="768" viewBox="0 0 128 128" version="1.1"><g id="background" inkscape:groupmode="layer" inkscape:label="Background" style="display:inline"><rect x="0" y="0" width="128" height="128" fill="white" /></g><g id="original_target_vectors" inkscape:groupmode="layer" inkscape:label="Original target vectors" stroke="#1f77b4" stroke-width="1.3" fill="none" stroke-linecap="round" stroke-linejoin="round" style="display:inline"><title>Original target vectors</title><line x1="123.000" y1="84.000" x2="123.000" y2="70.000" /><line x1="54.000" y1="21.000" x2="37.000" y2="21.000" /><line x1="90.000" y1="40.000" x2="118.000" y2="40.000" /></g><g id="cnn_threshold_binary" inkscape:groupmode="layer" inkscape:label="CNN + Threshold binary" stroke="#ff7f0e" stroke-width="1.0" fill="none" stroke-linecap="round" stroke-linejoin="round" style="display:inline"><title>CNN + Threshold binary</title><line x1="106.000" y1="52.000" x2="116.000" y2="42.000" /><line x1="31.000" y1="23.000" x2="80.000" y2="25.000" /><line x1="99.000" y1="45.000" x2="102.000" y2="81.000" /></g><g id="cnn_dilated_stroke" inkscape:groupmode="layer" inkscape:label="CNN + Dilated stroke" stroke="#ff7f0e" stroke-width="1.0" fill="none" stroke-linecap="round" stroke-linejoin="round" style="display:inline"><title>CNN + Dilated stroke</title><line x1="63.000" y1="25.000" x2="79.000" y2="15.000" /><line x1="113.000" y1="32.000" x2="120.000" y2="60.000" /></g><g id="cnn_close_small_gaps" inkscape:groupmode="layer" inkscape:label="CNN + Close small gaps" stroke="#ff7f0e" stroke-width="1.0" fill="none" stroke-linecap="round" stroke-linejoin="round" style="display:inline"><title>CNN + Close small gaps</title><line x1="37.000" y1="15.000" x2="80.000" y2="22.000" /><line x1="107.000" y1="29.000" x2="120.000" y2="46.000" /></g><g id="cnn_local_density_blur" inkscape:groupmode="layer" inkscape:label="CNN + Local density blur" stroke="#ff7f0e" stroke-width="1.0" fill="none" stroke-linecap="round" stroke-linejoin="round" style="display:inline"><title>CNN + Local density blur</title><line x1="101.000" y1="32.000" x2="120.000" y2="45.000" /><line x1="44.000" y1="17.000" x2="64.000" y2="20.000" /><line x1="104.000" y1="55.000" x2="109.000" y2="95.000" /></g><g id="cnn_sobel_edge_response" inkscape:groupmode="layer" inkscape:label="CNN + Sobel edge response" stroke="#ff7f0e" stroke-width="1.0" fill="none" stroke-linecap="round" stroke-linejoin="round" style="display:inline"><title>CNN + Sobel edge response</title><line x1="103.000" y1="51.000" x2="118.000" y2="44.000" /><line x1="38.000" y1="14.000" x2="74.000" y2="21.000" /><line x1="102.000" y1="93.000" x2="109.000" y2="63.000" /></g><g id="cnn_distance-to-stroke" inkscape:groupmode="layer" inkscape:label="CNN + Distance-to-stroke" stroke="#ff7f0e" stroke-width="1.0" fill="none" stroke-linecap="round" stroke-linejoin="round" style="display:inline"><title>CNN + Distance-to-stroke</title><line x1="112.000" y1="49.000" x2="116.000" y2="27.000" /><line x1="36.000" y1="10.000" x2="71.000" y2="23.000" /><line x1="100.000" y1="63.000" x2="116.000" y2="79.000" /></g><g id="cnn_neighbour-count_context" inkscape:groupmode="layer" inkscape:label="CNN + Neighbour-count context" stroke="#ff7f0e" stroke-width="1.0" fill="none" stroke-linecap="round" stroke-linejoin="round" style="display:inline"><title>CNN + Neighbour-count context</title><line x1="111.000" y1="50.000" x2="115.000" y2="38.000" /><line x1="37.000" y1="22.000" x2="87.000" y2="19.000" /><line x1="94.000" y1="60.000" x2="113.000" y2="84.000" /></g><g id="cnn_zhang-suen_skeleton" inkscape:groupmode="layer" inkscape:label="CNN + Zhang-Suen skeleton" stroke="#ff7f0e" stroke-width="1.0" fill="none" stroke-linecap="round" stroke-linejoin="round" style="display:inline"><title>CNN + Zhang-Suen skeleton</title><line x1="100.000" y1="33.000" x2="107.000" y2="53.000" /><line x1="52.000" y1="17.000" x2="82.000" y2="14.000" /><line x1="110.000" y1="79.000" x2="112.000" y2="47.000" /></g></svg>