<?xml version='1.0' encoding='utf-8'?>
<svg xmlns="http://www.w3.org/2000/svg" xmlns:inkscape="http://www.inkscape.org/namespaces/inkscape" width="768" height="768" viewBox="0 0 128 128" version="1.1"><g id="background" inkscape:groupmode="layer" inkscape:label="Background" style="display:inline"><rect x="0" y="0" width="128" height="128" fill="white" /></g><g id="original_target_vectors" inkscape:groupmode="layer" inkscape:label="Original target vectors" stroke="#1f77b4" stroke-width="1.3" fill="none" stroke-linecap="round" stroke-linejoin="round" style="display:inline"><title>Original target vectors</title><line x1="55.000" y1="88.000" x2="7.000" y2="88.000" /><line x1="48.000" y1="79.000" x2="48.000" y2="121.000" /><line x1="16.000" y1="93.000" x2="16.000" y2="36.000" /></g><g id="cnn_threshold_binary" inkscape:groupmode="layer" inkscape:label="CNN + Threshold binary" stroke="#ff7f0e" stroke-width="1.0" fill="none" stroke-linecap="round" stroke-linejoin="round" style="display:inline"><title>CNN + Threshold binary</title><line x1="10.000" y1="108.000" x2="40.000" y2="73.000" /><line x1="23.000" y1="52.000" x2="25.000" y2="79.000" /><line x1="29.000" y1="112.000" x2="53.000" y2="88.000" /></g><g id="cnn_dilated_stroke" inkscape:groupmode="layer" inkscape:label="CNN + Dilated stroke" stroke="#ff7f0e" stroke-width="1.0" fill="none" stroke-linecap="round" stroke-linejoin="round" style="display:inline"><title>CNN + Dilated stroke</title><line x1="10.000" y1="113.000" x2="17.000" y2="71.000" /><line x1="22.000" y1="53.000" x2="29.000" y2="92.000" /><line x1="32.000" y1="98.000" x2="53.000" y2="103.000" /></g><g id="cnn_close_small_gaps" inkscape:groupmode="layer" inkscape:label="CNN + Close small gaps" stroke="#ff7f0e" stroke-width="1.0" fill="none" stroke-linecap="round" stroke-linejoin="round" style="display:inline"><title>CNN + Close small gaps</title><line x1="10.000" y1="35.000" x2="26.000" y2="93.000" /><line x1="13.000" y1="92.000" x2="35.000" y2="107.000" /></g><g id="cnn_local_density_blur" inkscape:groupmode="layer" inkscape:label="CNN + Local density blur" stroke="#ff7f0e" stroke-width="1.0" fill="none" stroke-linecap="round" stroke-linejoin="round" style="display:inline"><title>CNN + Local density blur</title><line x1="25.000" y1="58.000" x2="51.000" y2="97.000" /><line x1="13.000" y1="40.000" x2="22.000" y2="84.000" /><line x1="45.000" y1="97.000" x2="65.000" y2="108.000" /></g><g id="cnn_sobel_edge_response" inkscape:groupmode="layer" inkscape:label="CNN + Sobel edge response" stroke="#ff7f0e" stroke-width="1.0" fill="none" stroke-linecap="round" stroke-linejoin="round" style="display:inline"><title>CNN + Sobel edge response</title><line x1="9.000" y1="53.000" x2="22.000" y2="92.000" /><line x1="26.000" y1="91.000" x2="27.000" y2="98.000" /></g><g id="cnn_distance-to-stroke" inkscape:groupmode="layer" inkscape:label="CNN + Distance-to-stroke" stroke="#ff7f0e" stroke-width="1.0" fill="none" stroke-linecap="round" stroke-linejoin="round" style="display:inline"><title>CNN + Distance-to-stroke</title><line x1="36.000" y1="104.000" x2="42.000" y2="78.000" /><line x1="10.000" y1="38.000" x2="19.000" y2="102.000" /><line x1="21.000" y1="104.000" x2="60.000" y2="100.000" /></g><g id="cnn_neighbour-count_context" inkscape:groupmode="layer" inkscape:label="CNN + Neighbour-count context" stroke="#ff7f0e" stroke-width="1.0" fill="none" stroke-linecap="round" stroke-linejoin="round" style="display:inline"><title>CNN + Neighbour-count context</title><line x1="18.000" y1="83.000" x2="30.000" y2="107.000" /><line x1="11.000" y1="35.000" x2="23.000" y2="98.000" /><line x1="32.000" y1="101.000" x2="65.000" y2="110.000" /></g><g id="cnn_zhang-suen_skeleton" inkscape:groupmode="layer" inkscape:label="CNN + Zhang-Suen skeleton" stroke="#ff7f0e" stroke-width="1.0" fill="none" stroke-linecap="round" stroke-linejoin="round" style="display:inline"><title>CNN + Zhang-Suen skeleton</title><line x1="10.000" y1="104.000" x2="14.000" y2="38.000" /><line x1="23.000" y1="83.000" x2="38.000" y2="108.000" /></g></svg>