<?xml version='1.0' encoding='utf-8'?>
<svg xmlns="http://www.w3.org/2000/svg" xmlns:inkscape="http://www.inkscape.org/namespaces/inkscape" width="768" height="768" viewBox="0 0 128 128" version="1.1"><g id="background" inkscape:groupmode="layer" inkscape:label="Background" style="display:inline"><rect x="0" y="0" width="128" height="128" fill="white" /></g><g id="original_target_vectors" inkscape:groupmode="layer" inkscape:label="Original target vectors" stroke="#1f77b4" stroke-width="1.3" fill="none" stroke-linecap="round" stroke-linejoin="round" style="display:inline"><title>Original target vectors</title><line x1="23.000" y1="93.000" x2="87.000" y2="93.000" /><line x1="56.000" y1="22.000" x2="6.000" y2="72.000" /><line x1="57.000" y1="104.000" x2="57.000" y2="36.000" /><line x1="24.000" y1="48.000" x2="24.000" y2="26.000" /><line x1="113.000" y1="51.000" x2="113.000" y2="11.000" /><line x1="78.000" y1="116.000" x2="120.000" y2="74.000" /><line x1="118.000" y1="47.000" x2="95.000" y2="47.000" /></g><g id="baseline_on_shared_skeleton" inkscape:groupmode="layer" inkscape:label="Baseline on shared skeleton" stroke="#d62728" stroke-width="1.0" fill="none" stroke-linecap="round" stroke-linejoin="round" style="display:inline"><title>Baseline on shared skeleton</title><line x1="113.000" y1="11.000" x2="113.000" y2="51.000" /><line x1="118.000" y1="47.000" x2="95.000" y2="47.000" /><line x1="57.000" y1="36.000" x2="57.000" y2="104.000" /><line x1="87.000" y1="93.000" x2="23.000" y2="93.000" /><line x1="55.000" y1="23.000" x2="7.000" y2="71.000" /><line x1="24.000" y1="26.000" x2="24.000" y2="48.000" /><line x1="119.000" y1="75.000" x2="79.000" y2="115.000" /></g><g id="skeleton_graph_junction_fix" inkscape:groupmode="layer" inkscape:label="Skeleton graph junction fix" stroke="#2ca02c" stroke-width="1.0" fill="none" stroke-linecap="round" stroke-linejoin="round" style="display:inline"><title>Skeleton graph junction fix</title><line x1="113.000" y1="51.000" x2="113.000" y2="11.000" /><line x1="55.000" y1="23.000" x2="7.000" y2="71.000" /><line x1="24.000" y1="26.000" x2="24.000" y2="48.000" /><line x1="57.000" y1="104.000" x2="57.000" y2="36.000" /><line x1="118.000" y1="47.000" x2="95.000" y2="47.000" /><line x1="119.000" y1="75.000" x2="79.000" y2="115.000" /><line x1="87.000" y1="93.000" x2="23.000" y2="93.000" /></g><g id="mlp_direct_vector_regression" inkscape:groupmode="layer" inkscape:label="MLP direct vector regression" stroke="#9467bd" stroke-width="1.0" fill="none" stroke-linecap="round" stroke-linejoin="round" style="display:inline"><title>MLP direct vector regression</title><line x1="66.000" y1="11.000" x2="73.000" y2="24.000" /><line x1="91.000" y1="17.000" x2="92.000" y2="36.000" /><line x1="39.000" y1="59.000" x2="41.000" y2="21.000" /><line x1="60.000" y1="65.000" x2="64.000" y2="38.000" /><line x1="31.000" y1="50.000" x2="50.000" y2="77.000" /><line x1="49.000" y1="95.000" x2="66.000" y2="49.000" /><line x1="35.000" y1="76.000" x2="60.000" y2="96.000" /><line x1="54.000" y1="87.000" x2="65.000" y2="103.000" /><line x1="115.000" y1="114.000" x2="117.000" y2="92.000" /></g><g id="cnn_direct_vector_regression" inkscape:groupmode="layer" inkscape:label="CNN direct vector regression" stroke="#ff7f0e" stroke-width="1.0" fill="none" stroke-linecap="round" stroke-linejoin="round" style="display:inline"><title>CNN direct vector regression</title><line x1="76.000" y1="58.000" x2="93.000" y2="20.000" /><line x1="70.000" y1="29.000" x2="93.000" y2="54.000" /><line x1="61.000" y1="75.000" x2="73.000" y2="31.000" /><line x1="63.000" y1="87.000" x2="80.000" y2="35.000" /><line x1="74.000" y1="56.000" x2="85.000" y2="86.000" /><line x1="16.000" y1="71.000" x2="45.000" y2="108.000" /><line x1="49.000" y1="106.000" x2="107.000" y2="111.000" /></g></svg>