<?xml version='1.0' encoding='utf-8'?>
<svg xmlns="http://www.w3.org/2000/svg" xmlns:inkscape="http://www.inkscape.org/namespaces/inkscape" width="768" height="768" viewBox="0 0 128 128" version="1.1"><g id="background" inkscape:groupmode="layer" inkscape:label="Background" style="display:inline"><rect x="0" y="0" width="128" height="128" fill="white" /></g><g id="original_target_vectors" inkscape:groupmode="layer" inkscape:label="Original target vectors" stroke="#1f77b4" stroke-width="1.3" fill="none" stroke-linecap="round" stroke-linejoin="round" style="display:inline"><title>Original target vectors</title><line x1="38.000" y1="88.000" x2="38.000" y2="58.000" /><line x1="120.000" y1="82.000" x2="87.000" y2="82.000" /></g><g id="baseline_on_shared_skeleton" inkscape:groupmode="layer" inkscape:label="Baseline on shared skeleton" stroke="#d62728" stroke-width="1.0" fill="none" stroke-linecap="round" stroke-linejoin="round" style="display:inline"><title>Baseline on shared skeleton</title><line x1="38.000" y1="59.000" x2="38.000" y2="87.000" /><line x1="87.000" y1="82.000" x2="119.000" y2="82.000" /></g><g id="skeleton_graph_junction_fix" inkscape:groupmode="layer" inkscape:label="Skeleton graph junction fix" stroke="#2ca02c" stroke-width="1.0" fill="none" stroke-linecap="round" stroke-linejoin="round" style="display:inline"><title>Skeleton graph junction fix</title><line x1="38.000" y1="59.000" x2="38.000" y2="87.000" /><line x1="87.000" y1="82.000" x2="119.000" y2="82.000" /></g><g id="mlp_direct_vector_regression" inkscape:groupmode="layer" inkscape:label="MLP direct vector regression" stroke="#9467bd" stroke-width="1.0" fill="none" stroke-linecap="round" stroke-linejoin="round" style="display:inline"><title>MLP direct vector regression</title><line x1="56.000" y1="56.000" x2="64.000" y2="61.000" /><line x1="65.000" y1="65.000" x2="66.000" y2="56.000" /><line x1="67.000" y1="57.000" x2="67.000" y2="66.000" /><line x1="56.000" y1="58.000" x2="70.000" y2="68.000" /><line x1="63.000" y1="57.000" x2="69.000" y2="71.000" /><line x1="59.000" y1="70.000" x2="62.000" y2="62.000" /><line x1="62.000" y1="69.000" x2="64.000" y2="65.000" /></g><g id="cnn_direct_vector_regression" inkscape:groupmode="layer" inkscape:label="CNN direct vector regression" stroke="#ff7f0e" stroke-width="1.0" fill="none" stroke-linecap="round" stroke-linejoin="round" style="display:inline"><title>CNN direct vector regression</title><line x1="45.000" y1="62.000" x2="60.000" y2="46.000" /><line x1="65.000" y1="77.000" x2="85.000" y2="90.000" /></g></svg>