<?xml version='1.0' encoding='utf-8'?>
<svg xmlns="http://www.w3.org/2000/svg" width="768" height="768" viewBox="0 0 128 128"><rect x="0" y="0" width="128" height="128" fill="white" /><g id="original_vectors" stroke="blue" stroke-width="1" fill="none" stroke-linecap="round"><line x1="63.000" y1="53.000" x2="0.000" y2="78.000" /><line x1="60.000" y1="29.000" x2="58.000" y2="6.000" /><line x1="104.000" y1="58.000" x2="127.000" y2="38.000" /><line x1="55.000" y1="68.000" x2="91.000" y2="56.000" /></g><g id="baseline_vectors" stroke="red" stroke-width="1" fill="none" stroke-linecap="round"><line x1="58.000" y1="6.000" x2="60.000" y2="29.000" /><line x1="127.000" y1="38.000" x2="104.000" y2="58.000" /><line x1="63.000" y1="53.000" x2="0.000" y2="78.000" /><line x1="91.000" y1="56.000" x2="55.000" y2="68.000" /></g><g id="mlp_vectors" stroke="green" stroke-width="1" fill="none" stroke-linecap="round"><line x1="58.000" y1="6.000" x2="60.000" y2="29.000" /><line x1="127.000" y1="38.000" x2="104.000" y2="58.000" /><line x1="63.000" y1="53.000" x2="0.000" y2="78.000" /><line x1="91.000" y1="56.000" x2="55.000" y2="68.000" /></g><g id="cnn_vectors" stroke="purple" stroke-width="1" fill="none" stroke-linecap="round"><line x1="58.000" y1="6.000" x2="60.000" y2="29.000" /><line x1="127.000" y1="38.000" x2="104.000" y2="58.000" /><line x1="63.000" y1="53.000" x2="0.000" y2="78.000" /><line x1="91.000" y1="56.000" x2="55.000" y2="68.000" /></g></svg>