<?xml version='1.0' encoding='utf-8'?>
<svg xmlns="http://www.w3.org/2000/svg" width="768" height="768" viewBox="0 0 128 128"><rect x="0" y="0" width="128" height="128" fill="white" /><g id="original_vectors" stroke="blue" stroke-width="1" fill="none" stroke-linecap="round"><line x1="86.000" y1="35.000" x2="125.000" y2="0.000" /><line x1="104.000" y1="106.000" x2="99.000" y2="88.000" /><line x1="85.000" y1="101.000" x2="110.000" y2="66.000" /><line x1="37.000" y1="25.000" x2="6.000" y2="11.000" /><line x1="6.000" y1="49.000" x2="38.000" y2="26.000" /></g><g id="baseline_vectors" stroke="red" stroke-width="1" fill="none" stroke-linecap="round"><line x1="125.000" y1="0.000" x2="86.000" y2="35.000" /><line x1="6.000" y1="11.000" x2="6.000" y2="49.000" /><line x1="110.000" y1="66.000" x2="85.000" y2="101.000" /><line x1="99.000" y1="88.000" x2="104.000" y2="106.000" /></g><g id="mlp_vectors" stroke="green" stroke-width="1" fill="none" stroke-linecap="round"><line x1="36.500" y1="27.000" x2="6.000" y2="49.000" /><line x1="36.500" y1="27.000" x2="6.000" y2="11.000" /><line x1="125.000" y1="0.000" x2="86.000" y2="35.000" /><line x1="110.000" y1="66.000" x2="85.000" y2="101.000" /><line x1="99.000" y1="88.000" x2="104.000" y2="106.000" /></g><g id="cnn_vectors" stroke="purple" stroke-width="1" fill="none" stroke-linecap="round"><line x1="36.500" y1="27.000" x2="6.000" y2="49.000" /><line x1="36.500" y1="27.000" x2="6.000" y2="11.000" /><line x1="125.000" y1="0.000" x2="86.000" y2="35.000" /><line x1="110.000" y1="66.000" x2="85.000" y2="101.000" /><line x1="99.000" y1="88.000" x2="104.000" y2="106.000" /></g></svg>