<?xml version='1.0' encoding='utf-8'?>
<svg xmlns="http://www.w3.org/2000/svg" width="768" height="768" viewBox="0 0 128 128"><rect x="0" y="0" width="128" height="128" fill="white" /><g id="original_vectors" stroke="blue" stroke-width="1" fill="none" stroke-linecap="round"><line x1="109.499" y1="19.544" x2="11.499" y2="19.544" /><line x1="72.501" y1="72.501" x2="72.501" y2="8.501" /><line x1="88.311" y1="56.411" x2="22.493" y2="94.411" /><line x1="55.615" y1="117.688" x2="7.532" y2="69.605" /><line x1="76.109" y1="83.493" x2="76.109" y2="49.493" /></g><g id="baseline_vectors" stroke="red" stroke-width="1" fill="none" stroke-linecap="round"><line x1="73.055" y1="8.997" x2="75.804" y2="83.007" /><line x1="109.000" y1="20.000" x2="11.000" y2="20.000" /><line x1="87.923" y1="55.867" x2="22.048" y2="94.082" /><line x1="74.706" y1="63.412" x2="73.000" y2="73.000" /><line x1="7.886" y1="70.114" x2="55.916" y2="118.084" /></g><g id="mlp_vectors" stroke="green" stroke-width="1" fill="none" stroke-linecap="round"><line x1="75.420" y1="83.022" x2="72.614" y2="9.013" /><line x1="109.000" y1="20.000" x2="11.000" y2="20.000" /><line x1="87.896" y1="55.821" x2="22.053" y2="94.091" /><line x1="73.075" y1="73.009" x2="76.049" y2="49.006" /><line x1="7.919" y1="70.081" x2="55.940" y2="118.060" /></g><g id="cnn_vectors" stroke="purple" stroke-width="1" fill="none" stroke-linecap="round"><line x1="73.089" y1="8.998" x2="75.515" y2="83.016" /><line x1="109.000" y1="20.000" x2="11.000" y2="20.000" /><line x1="88.026" y1="56.045" x2="22.037" y2="94.065" /><line x1="74.286" y1="64.000" x2="73.000" y2="73.000" /><line x1="8.158" y1="69.843" x2="56.117" y2="117.883" /></g></svg>