<?xml version='1.0' encoding='utf-8'?>
<svg xmlns="http://www.w3.org/2000/svg" xmlns:inkscape="http://www.inkscape.org/namespaces/inkscape" width="768" height="768" viewBox="0 0 128 128" version="1.1"><g id="background" inkscape:groupmode="layer" inkscape:label="Background" style="display:inline"><rect x="0" y="0" width="128" height="128" fill="white" /></g><g id="original_target_vectors" inkscape:groupmode="layer" inkscape:label="Original target vectors" stroke="#1f77b4" stroke-width="1.3" fill="none" stroke-linecap="round" stroke-linejoin="round" style="display:inline"><title>Original target vectors</title><line x1="30.000" y1="122.000" x2="30.000" y2="50.000" /><line x1="28.000" y1="63.000" x2="38.000" y2="73.000" /><line x1="22.000" y1="106.000" x2="22.000" y2="70.000" /><line x1="40.000" y1="66.000" x2="40.000" y2="42.000" /><line x1="11.000" y1="82.000" x2="20.000" y2="91.000" /><line x1="56.000" y1="88.000" x2="87.000" y2="88.000" /><line x1="120.000" y1="49.000" x2="120.000" y2="71.000" /><line x1="97.000" y1="10.000" x2="28.000" y2="79.000" /><line x1="81.000" y1="105.000" x2="5.000" y2="105.000" /></g><g id="baseline" inkscape:groupmode="layer" inkscape:label="Baseline" stroke="#d62728" stroke-width="1.0" fill="none" stroke-linecap="round" stroke-linejoin="round" style="display:inline"><title>Baseline</title><line x1="40.429" y1="65.000" x2="40.000" y2="43.000" /><line x1="40.429" y1="65.000" x2="97.000" y2="10.000" /><line x1="40.429" y1="65.000" x2="36.000" y2="71.000" /><line x1="30.025" y1="121.000" x2="30.293" y2="50.000" /><line x1="30.429" y1="67.000" x2="36.000" y2="71.000" /><line x1="36.000" y1="71.000" x2="30.429" y2="75.000" /><line x1="36.000" y1="71.000" x2="38.000" y2="73.000" /><line x1="22.000" y1="104.571" x2="22.000" y2="70.000" /><line x1="4.999" y1="104.839" x2="80.000" y2="104.984" /><line x1="120.000" y1="49.000" x2="120.000" y2="71.000" /><line x1="12.000" y1="83.000" x2="19.000" y2="90.000" /><line x1="57.000" y1="88.000" x2="86.000" y2="88.000" /></g><g id="hough_transform" inkscape:groupmode="layer" inkscape:label="Hough Transform" stroke="#ff7f0e" stroke-width="1.0" fill="none" stroke-linecap="round" stroke-linejoin="round" style="display:inline"><title>Hough Transform</title><line x1="5.000" y1="104.968" x2="80.000" y2="105.008" /><line x1="30.058" y1="50.000" x2="29.996" y2="121.000" /><line x1="96.937" y1="9.937" x2="18.128" y2="89.132" /><line x1="22.000" y1="70.000" x2="22.000" y2="103.000" /><line x1="17.000" y1="88.000" x2="86.000" y2="88.000" /><line x1="40.000" y1="43.000" x2="40.000" y2="65.000" /><line x1="120.000" y1="49.000" x2="120.000" y2="71.000" /></g><g id="contour-based_fitting" inkscape:groupmode="layer" inkscape:label="Contour-based fitting" stroke="#9467bd" stroke-width="1.0" fill="none" stroke-linecap="round" stroke-linejoin="round" style="display:inline"><title>Contour-based fitting</title><line x1="97.000" y1="10.000" x2="63.000" y2="44.000" /><line x1="62.796" y1="49.781" x2="39.283" y2="53.693" /><line x1="33.266" y1="69.001" x2="78.935" y2="106.304" /><line x1="25.130" y1="75.290" x2="34.746" y2="51.956" /><line x1="21.015" y1="75.470" x2="30.655" y2="95.688" /><line x1="25.436" y1="100.311" x2="5.638" y2="106.913" /><line x1="31.756" y1="97.133" x2="29.947" y2="120.996" /><line x1="39.000" y1="105.000" x2="73.000" y2="105.000" /><line x1="120.000" y1="49.000" x2="120.000" y2="71.000" /><line x1="12.000" y1="83.000" x2="19.000" y2="90.000" /><line x1="57.000" y1="88.000" x2="86.000" y2="88.000" /></g><g id="thinning_skeletonisation" inkscape:groupmode="layer" inkscape:label="Thinning / skeletonisation" stroke="#2ca02c" stroke-width="1.0" fill="none" stroke-linecap="round" stroke-linejoin="round" style="display:inline"><title>Thinning / skeletonisation</title><line x1="97.000" y1="10.000" x2="40.200" y2="65.400" /><line x1="40.000" y1="43.000" x2="40.200" y2="65.400" /><line x1="120.000" y1="49.000" x2="120.000" y2="71.000" /><line x1="30.035" y1="121.000" x2="30.410" y2="49.999" /><line x1="40.200" y1="65.400" x2="36.000" y2="71.000" /><line x1="30.600" y1="67.000" x2="36.000" y2="71.000" /><line x1="22.000" y1="70.000" x2="22.000" y2="104.750" /><line x1="36.000" y1="71.000" x2="30.600" y2="75.000" /><line x1="36.000" y1="71.000" x2="38.000" y2="73.000" /><line x1="12.000" y1="83.000" x2="19.000" y2="90.000" /><line x1="57.000" y1="88.000" x2="86.000" y2="88.000" /><line x1="5.000" y1="104.906" x2="80.000" y2="104.991" /></g><g id="run-graph_vectorisation" inkscape:groupmode="layer" inkscape:label="Run-graph vectorisation" stroke="#8c564b" stroke-width="1.0" fill="none" stroke-linecap="round" stroke-linejoin="round" style="display:inline"><title>Run-graph vectorisation</title><line x1="97.000" y1="10.000" x2="40.250" y2="65.000" /><line x1="40.000" y1="43.000" x2="40.250" y2="65.000" /><line x1="120.000" y1="49.000" x2="120.000" y2="71.000" /><line x1="30.015" y1="121.000" x2="30.171" y2="50.000" /><line x1="40.250" y1="65.000" x2="36.000" y2="71.000" /><line x1="30.250" y1="67.000" x2="36.000" y2="71.000" /><line x1="22.000" y1="70.000" x2="22.000" y2="104.750" /><line x1="36.000" y1="71.000" x2="30.250" y2="75.000" /><line x1="36.000" y1="71.000" x2="38.000" y2="73.000" /><line x1="12.000" y1="83.000" x2="19.000" y2="90.000" /><line x1="57.000" y1="88.000" x2="86.000" y2="88.000" /><line x1="5.000" y1="104.906" x2="80.000" y2="104.991" /></g><g id="sparse-pixel_ransac" inkscape:groupmode="layer" inkscape:label="Sparse-pixel RANSAC" stroke="#17becf" stroke-width="1.0" fill="none" stroke-linecap="round" stroke-linejoin="round" style="display:inline"><title>Sparse-pixel RANSAC</title><line x1="5.000" y1="104.968" x2="80.000" y2="105.008" /><line x1="97.158" y1="10.160" x2="17.564" y2="88.572" /><line x1="30.036" y1="50.000" x2="29.993" y2="121.000" /><line x1="14.983" y1="86.869" x2="85.995" y2="88.258" /><line x1="22.000" y1="70.000" x2="22.000" y2="103.000" /><line x1="40.469" y1="43.026" x2="38.782" y2="73.044" /><line x1="120.000" y1="49.000" x2="120.000" y2="71.000" /></g><g id="mesh-pattern_local" inkscape:groupmode="layer" inkscape:label="Mesh-pattern local" stroke="#e377c2" stroke-width="1.0" fill="none" stroke-linecap="round" stroke-linejoin="round" style="display:inline"><title>Mesh-pattern local</title><line x1="97.000" y1="10.000" x2="48.000" y2="59.000" /><line x1="87.000" y1="20.000" x2="80.000" y2="27.000" /><line x1="75.000" y1="32.000" x2="68.000" y2="39.000" /><line x1="40.000" y1="43.000" x2="40.000" y2="51.000" /><line x1="63.000" y1="44.000" x2="56.000" y2="51.000" /><line x1="30.000" y1="50.000" x2="30.000" y2="63.000" /><line x1="120.000" y1="71.000" x2="120.000" y2="49.000" /><line x1="22.000" y1="70.000" x2="22.000" y2="75.000" /><line x1="12.000" y1="83.000" x2="15.000" y2="86.000" /><line x1="30.000" y1="84.000" x2="30.000" y2="99.000" /><line x1="57.000" y1="88.000" x2="86.000" y2="88.000" /><line x1="5.000" y1="105.000" x2="15.000" y2="105.000" /><line x1="36.000" y1="105.000" x2="80.000" y2="105.000" /><line x1="30.000" y1="108.000" x2="30.000" y2="121.000" /></g></svg>