<?xml version='1.0' encoding='utf-8'?>
<svg xmlns="http://www.w3.org/2000/svg" xmlns:inkscape="http://www.inkscape.org/namespaces/inkscape" width="768" height="768" viewBox="0 0 128 128" version="1.1"><g id="background" inkscape:groupmode="layer" inkscape:label="Background" style="display:inline"><rect x="0" y="0" width="128" height="128" fill="white" /></g><g id="original_target_vectors" inkscape:groupmode="layer" inkscape:label="Original target vectors" stroke="#1f77b4" stroke-width="1.3" fill="none" stroke-linecap="round" stroke-linejoin="round" style="display:inline"><title>Original target vectors</title><line x1="44.000" y1="102.000" x2="87.000" y2="102.000" /><line x1="113.000" y1="40.000" x2="89.000" y2="40.000" /><line x1="61.000" y1="59.000" x2="61.000" y2="97.000" /></g><g id="cnn_threshold_binary" inkscape:groupmode="layer" inkscape:label="CNN + Threshold binary" stroke="#ff7f0e" stroke-width="1.0" fill="none" stroke-linecap="round" stroke-linejoin="round" style="display:inline"><title>CNN + Threshold binary</title><line x1="82.000" y1="47.000" x2="116.000" y2="29.000" /><line x1="68.000" y1="43.000" x2="71.000" y2="101.000" /><line x1="48.000" y1="109.000" x2="78.000" y2="94.000" /></g><g id="cnn_dilated_stroke" inkscape:groupmode="layer" inkscape:label="CNN + Dilated stroke" stroke="#ff7f0e" stroke-width="1.0" fill="none" stroke-linecap="round" stroke-linejoin="round" style="display:inline"><title>CNN + Dilated stroke</title><line x1="88.000" y1="30.000" x2="114.000" y2="49.000" /><line x1="54.000" y1="68.000" x2="71.000" y2="102.000" /><line x1="68.000" y1="115.000" x2="76.000" y2="108.000" /></g><g id="cnn_close_small_gaps" inkscape:groupmode="layer" inkscape:label="CNN + Close small gaps" stroke="#ff7f0e" stroke-width="1.0" fill="none" stroke-linecap="round" stroke-linejoin="round" style="display:inline"><title>CNN + Close small gaps</title><line x1="87.000" y1="42.000" x2="105.000" y2="44.000" /><line x1="56.000" y1="105.000" x2="68.000" y2="67.000" /><line x1="51.000" y1="113.000" x2="56.000" y2="94.000" /></g><g id="cnn_local_density_blur" inkscape:groupmode="layer" inkscape:label="CNN + Local density blur" stroke="#ff7f0e" stroke-width="1.0" fill="none" stroke-linecap="round" stroke-linejoin="round" style="display:inline"><title>CNN + Local density blur</title><line x1="54.000" y1="59.000" x2="100.000" y2="88.000" /><line x1="100.000" y1="38.000" x2="118.000" y2="44.000" /><line x1="51.000" y1="103.000" x2="67.000" y2="87.000" /></g><g id="cnn_sobel_edge_response" inkscape:groupmode="layer" inkscape:label="CNN + Sobel edge response" stroke="#ff7f0e" stroke-width="1.0" fill="none" stroke-linecap="round" stroke-linejoin="round" style="display:inline"><title>CNN + Sobel edge response</title><line x1="93.000" y1="42.000" x2="107.000" y2="67.000" /><line x1="55.000" y1="103.000" x2="81.000" y2="72.000" /></g><g id="cnn_distance-to-stroke" inkscape:groupmode="layer" inkscape:label="CNN + Distance-to-stroke" stroke="#ff7f0e" stroke-width="1.0" fill="none" stroke-linecap="round" stroke-linejoin="round" style="display:inline"><title>CNN + Distance-to-stroke</title><line x1="61.000" y1="93.000" x2="65.000" y2="59.000" /><line x1="82.000" y1="49.000" x2="115.000" y2="45.000" /><line x1="35.000" y1="105.000" x2="67.000" y2="100.000" /></g><g id="cnn_neighbour-count_context" inkscape:groupmode="layer" inkscape:label="CNN + Neighbour-count context" stroke="#ff7f0e" stroke-width="1.0" fill="none" stroke-linecap="round" stroke-linejoin="round" style="display:inline"><title>CNN + Neighbour-count context</title><line x1="41.000" y1="79.000" x2="71.000" y2="53.000" /><line x1="92.000" y1="33.000" x2="113.000" y2="35.000" /><line x1="67.000" y1="87.000" x2="79.000" y2="103.000" /></g><g id="cnn_zhang-suen_skeleton" inkscape:groupmode="layer" inkscape:label="CNN + Zhang-Suen skeleton" stroke="#ff7f0e" stroke-width="1.0" fill="none" stroke-linecap="round" stroke-linejoin="round" style="display:inline"><title>CNN + Zhang-Suen skeleton</title><line x1="93.000" y1="39.000" x2="116.000" y2="52.000" /><line x1="50.000" y1="94.000" x2="85.000" y2="44.000" /><line x1="37.000" y1="94.000" x2="57.000" y2="103.000" /></g><g id="cnn_multi-channel_stack" inkscape:groupmode="layer" inkscape:label="CNN + Multi-channel stack" stroke="#ff7f0e" stroke-width="1.0" fill="none" stroke-linecap="round" stroke-linejoin="round" style="display:inline"><title>CNN + Multi-channel stack</title><line x1="55.000" y1="91.000" x2="91.000" y2="57.000" /><line x1="90.000" y1="43.000" x2="98.000" y2="45.000" /><line x1="45.000" y1="110.000" x2="79.000" y2="88.000" /></g></svg>